<?xml version="1.0" standalone="no"?>
<!DOCTYPE svg PUBLIC "-//W3C//DTD SVG 20010904//EN"
 "http://www.w3.org/TR/2001/REC-SVG-20010904/DTD/svg10.dtd">
<svg version="1.0" xmlns="http://www.w3.org/2000/svg"
 width="225.000000pt" height="225.000000pt" viewBox="0 0 225.000000 225.000000"
 preserveAspectRatio="xMidYMid meet">
<metadata>
Created by potrace 1.16, written by Peter Selinger 2001-2019
</metadata>
<g transform="translate(0.000000,225.000000) scale(0.100000,-0.100000)"
fill="#000000" stroke="none">
<path d="M919 1562 c-102 -34 -173 -111 -205 -219 -10 -33 -22 -54 -34 -58
-49 -15 -110 -116 -110 -181 0 -12 -11 -26 -26 -35 -48 -25 -110 -105 -123
-156 -7 -26 -19 -68 -27 -93 -27 -83 -16 -126 55 -219 53 -70 85 -91 139 -91
96 0 160 66 127 130 -15 29 -61 60 -87 60 -7 -1 1 -7 19 -15 93 -40 74 -135
-30 -152 -57 -9 -99 19 -151 100 -51 79 -58 124 -30 179 16 30 16 31 77 24 86
-9 172 -52 248 -125 61 -58 63 -62 45 -76 -11 -8 -15 -15 -9 -15 7 0 15 4 18
10 3 5 23 10 43 10 46 0 126 21 172 45 26 14 59 19 130 19 202 3 320 40 376
118 16 22 50 64 77 94 26 30 47 63 47 74 0 11 12 30 26 42 14 13 35 39 46 58
12 19 23 37 25 39 2 2 28 8 59 12 94 13 131 55 104 120 -18 43 -144 139 -284
217 -32 18 -55 22 -106 21 -48 -1 -75 3 -100 17 -26 14 -59 19 -130 21 -63 1
-109 7 -135 18 -61 26 -178 29 -246 7z m261 -83 c95 -50 205 -164 258 -265 44
-85 102 -249 102 -288 0 -34 -53 -110 -94 -135 -20 -13 -55 -25 -78 -29 l-41
-5 6 55 c9 74 -13 197 -49 273 -40 86 -132 175 -209 204 -77 29 -192 37 -262
18 -64 -17 -65 -14 -23 70 51 102 132 146 256 140 56 -3 83 -10 134 -38z m228
-25 c68 -34 145 -119 171 -190 12 -30 26 -99 31 -151 9 -84 8 -100 -7 -131
-29 -57 -43 -52 -43 15 0 83 -25 188 -62 263 -30 62 -121 165 -178 203 l-25
16 31 0 c16 1 53 -11 82 -25z m222 -51 c52 -58 70 -108 70 -193 0 -57 -5 -83
-20 -107 -11 -18 -23 -33 -28 -33 -4 0 -8 42 -8 93 1 112 -23 175 -90 237
l-44 40 44 0 c38 0 48 -5 76 -37z m131 -144 c-5 -101 -24 -111 -32 -16 -3 40
-10 82 -17 94 -18 34 -15 36 21 16 l32 -19 -4 -75z m92 3 c17 -15 23 -47 10
-55 -20 -11 -59 -15 -71 -8 -10 6 -12 21 -7 54 7 44 9 46 29 35 11 -6 29 -17
39 -26z m-913 -12 c192 -36 315 -188 374 -463 6 -23 2 -29 -21 -38 -55 -21
-143 -32 -181 -22 -33 9 -43 7 -73 -14 -37 -26 -147 -63 -185 -63 -18 0 -28
10 -43 44 -26 61 -92 130 -149 156 -49 24 -134 31 -185 17 -26 -7 -27 -6 -21
20 11 47 53 103 102 134 45 30 50 31 139 26 162 -8 246 -64 333 -226 l41 -76
-4 60 c-13 161 -132 282 -287 292 -41 3 -83 -1 -112 -10 l-48 -15 0 26 c0 33
31 102 53 121 47 38 160 51 267 31z"/>
</g>
</svg>
